<?xml version="1.0" encoding="UTF-8"?>
<!-- Generator: visioncortex VTracer 0.6.3 -->
<svg version="1.1" xmlns="http://www.w3.org/2000/svg" width="1280" height="1280">
<path d="M0 0 C0.72 -0.01 1.44 -0.01 2.18 -0.02 C4.59 -0.03 7 -0.02 9.42 -0.01 C11.15 -0.02 12.87 -0.02 14.6 -0.03 C19.3 -0.05 24 -0.04 28.7 -0.03 C33.61 -0.02 38.52 -0.03 43.43 -0.03 C51.68 -0.04 59.94 -0.03 68.19 -0.01 C77.73 0.01 87.27 0 96.82 -0.02 C105 -0.04 113.19 -0.04 121.38 -0.03 C126.27 -0.02 131.17 -0.02 136.06 -0.04 C140.66 -0.05 145.26 -0.04 149.86 -0.02 C151.55 -0.01 153.24 -0.01 154.93 -0.02 C157.23 -0.03 159.54 -0.02 161.84 0 C163.13 0 164.42 0 165.75 0 C168.98 0.51 168.98 0.51 171.4 2.32 C173.69 5.47 173.56 8.46 173.53 12.21 C173.54 12.99 173.55 13.76 173.56 14.55 C173.59 17.09 173.59 19.64 173.59 22.18 C173.61 23.95 173.63 25.71 173.64 27.48 C173.69 32.12 173.71 36.76 173.72 41.4 C173.74 46.14 173.78 50.88 173.82 55.62 C173.9 64.92 173.95 74.21 173.98 83.51 C175.92 83.56 177.86 83.6 179.8 83.63 C180.88 83.66 181.95 83.68 183.07 83.7 C186.18 83.74 186.18 83.74 188.98 81.51 C191.44 80.95 191.44 80.95 194.37 80.51 C195.45 80.34 196.54 80.18 197.66 80.01 C198.8 79.84 199.94 79.68 201.11 79.51 C202.19 79.34 203.28 79.18 204.39 79.01 C207.92 78.48 211.45 78 214.98 77.51 C216.77 77.23 216.77 77.23 218.59 76.94 C231.67 75.1 244.74 75.24 257.93 75.3 C261.27 75.32 264.62 75.32 267.97 75.32 C271.21 75.32 274.45 75.33 277.7 75.34 C279.48 75.34 279.48 75.34 281.29 75.34 C299.39 75.45 299.39 75.45 303.98 78.51 C305.87 78.95 307.77 79.32 309.67 79.63 C310.67 79.8 311.66 79.97 312.68 80.14 C313.82 80.32 313.82 80.32 314.98 80.51 C314.98 81.17 314.98 81.83 314.98 82.51 C315.54 82.61 316.1 82.7 316.67 82.8 C322.33 83.91 326.94 85.74 331.98 88.51 C333.06 89 333.06 89 334.15 89.5 C336.49 90.78 336.85 92.16 337.98 94.51 C338.97 94.84 339.96 95.17 340.98 95.51 C340.98 96.17 340.98 96.83 340.98 97.51 C341.6 97.8 342.22 98.09 342.86 98.38 C344.98 99.51 344.98 99.51 346.98 101.51 C348.61 102.24 350.25 102.97 351.9 103.64 C354.26 104.62 356.59 105.65 358.92 106.7 C359.69 107.04 360.47 107.38 361.26 107.74 C361.83 107.99 362.4 108.25 362.98 108.51 C362.98 109.17 362.98 109.83 362.98 110.51 C366.45 111.5 366.45 111.5 369.98 112.51 C369.65 113.17 369.32 113.83 368.98 114.51 C369.97 114.51 370.96 114.51 371.98 114.51 C372.07 115.46 372.15 116.41 372.23 117.38 C372.61 118.93 372.61 118.93 372.98 120.51 C374.31 121.19 375.64 121.86 376.98 122.51 C377.27 123.4 377.55 124.3 377.84 125.22 C379.14 128.95 380.86 131.15 383.42 134.13 C387.93 139.44 387.93 139.44 389.62 141.7 C391.04 143.68 391.04 143.68 393.36 145.76 C396.08 148.61 397.97 151.47 399.97 154.84 C400.88 156.48 400.88 156.48 401.98 157.51 C402.09 158.58 402.19 159.65 402.3 160.76 C403.05 164.89 404.35 166.36 406.98 169.51 C406.98 173.84 406.98 178.17 406.98 182.51 C407.97 182.51 408.96 182.51 409.98 182.51 C411.49 185.62 411.98 187.5 411.86 191.01 C411.63 194.56 411.63 194.56 413.92 196.82 C416.54 200.23 416.46 202.61 416.52 206.81 C416.81 209.7 416.81 209.7 418.98 212.24 C422.38 218.09 421.53 224.95 421.48 231.5 C421.48 233.05 421.48 234.61 421.49 236.16 C421.5 240.43 421.49 244.71 421.47 248.98 C421.46 253.63 421.47 258.28 421.48 262.92 C421.48 271.07 421.48 279.22 421.46 287.37 C421.44 299.48 421.44 311.6 421.44 323.71 C421.44 344.09 421.43 364.47 421.41 384.85 C421.38 405.03 421.37 425.21 421.36 445.4 C421.36 446.65 421.36 447.91 421.36 449.2 C421.36 455.57 421.36 461.94 421.36 468.3 C421.35 513.43 421.32 558.56 421.29 603.69 C421.28 614.63 421.27 625.57 421.26 636.51 C421.26 637.53 421.26 637.53 421.26 638.57 C421.23 670.11 421.22 701.65 421.21 733.19 C421.2 735.23 421.2 737.28 421.2 739.33 C421.2 752.9 421.19 766.47 421.19 780.04 C421.18 807.68 421.17 835.32 421.15 862.96 C421.15 864.24 421.15 865.51 421.15 866.82 C421.12 951.71 421.05 1036.61 420.98 1121.51 C419.33 1122.17 417.68 1122.83 415.98 1123.51 C415.98 1129.12 415.98 1134.73 415.98 1140.51 C414.66 1140.84 413.34 1141.17 411.98 1141.51 C411.98 1145.47 411.98 1149.43 411.98 1153.51 C410.33 1154.17 408.68 1154.83 406.98 1155.51 C406.98 1158.48 406.98 1161.45 406.98 1164.51 C406.32 1164.84 405.66 1165.17 404.98 1165.51 C405.05 1166.93 405.05 1166.93 405.11 1168.38 C404.98 1171.51 404.98 1171.51 402.98 1173.51 C403.01 1174.48 403.03 1175.45 403.05 1176.45 C402.98 1179.51 402.98 1179.51 401.61 1181.38 C399.98 1182.51 399.98 1182.51 397.98 1182.51 C397.88 1183.27 397.78 1184.03 397.67 1184.82 C396.91 1187.8 396.36 1188.64 393.98 1190.51 C393.14 1191 392.29 1191.5 391.42 1192.01 C388.74 1193.43 388.74 1193.43 386.98 1196.51 C385.99 1196.51 385 1196.51 383.98 1196.51 C383.98 1198.49 383.98 1200.47 383.98 1202.51 C383.32 1202.51 382.66 1202.51 381.98 1202.51 C381.58 1203.65 381.58 1203.65 381.17 1204.82 C380.03 1207.4 379.17 1208.78 376.98 1210.51 C376.32 1210.51 375.66 1210.51 374.98 1210.51 C374.94 1211.19 374.9 1211.87 374.86 1212.57 C373.59 1216.84 371.53 1219.79 367.98 1222.51 C365.71 1223.05 365.71 1223.05 363.23 1223.32 C357.11 1224.12 354.22 1227.66 350.21 1232.1 C345.3 1237.42 345.3 1237.42 341.23 1237.7 C340.49 1237.63 339.75 1237.57 338.98 1237.51 C338.76 1238.06 338.53 1238.62 338.3 1239.2 C335.79 1243.62 333.22 1246.1 328.36 1247.7 C327.25 1247.96 326.13 1248.23 324.98 1248.51 C323.99 1249.17 323 1249.83 321.98 1250.51 C319.83 1250.78 319.83 1250.78 317.48 1250.88 C315.1 1251.04 315.1 1251.04 312.98 1251.51 C312.49 1252.19 311.99 1252.87 311.48 1253.57 C310.99 1254.21 310.49 1254.85 309.98 1255.51 C306.96 1255.87 304.02 1255.74 300.98 1255.51 C300.98 1256.17 300.98 1256.83 300.98 1257.51 C299.93 1257.65 298.88 1257.8 297.8 1257.95 C294.83 1258.38 291.92 1258.89 288.98 1259.51 C288.98 1259.84 288.98 1260.17 288.98 1260.51 C282.96 1261.26 277.1 1261.66 271.04 1261.64 C270.23 1261.64 269.41 1261.64 268.57 1261.64 C266.87 1261.64 265.16 1261.64 263.45 1261.64 C260.86 1261.63 258.26 1261.64 255.67 1261.64 C254 1261.64 252.33 1261.64 250.66 1261.64 C249.51 1261.64 249.51 1261.64 248.34 1261.65 C243.81 1261.63 239.44 1261.42 234.98 1260.51 C234.65 1259.85 234.32 1259.19 233.98 1258.51 C232.31 1258.57 232.31 1258.57 230.61 1258.63 C226.98 1258.51 226.98 1258.51 224.98 1256.51 C223.12 1256.19 223.12 1256.19 220.99 1256.2 C220.2 1256.17 219.42 1256.15 218.61 1256.12 C216.95 1256.09 215.29 1256.06 213.64 1256.03 C209.12 1255.88 206.41 1255.75 202.98 1252.51 C198.41 1251.31 193.94 1251.49 189.25 1251.67 C186.98 1251.51 186.98 1251.51 183.98 1249.51 C183.98 1248.52 183.98 1247.53 183.98 1246.51 C182.91 1246.53 181.84 1246.55 180.73 1246.58 C179.29 1246.6 177.86 1246.62 176.42 1246.63 C175.72 1246.65 175.01 1246.67 174.29 1246.68 C169.47 1246.73 165.56 1246.04 160.98 1244.51 C160.98 1243.52 160.98 1242.53 160.98 1241.51 C159.83 1241.53 158.67 1241.55 157.48 1241.58 C155.94 1241.6 154.4 1241.62 152.86 1241.63 C152.1 1241.65 151.34 1241.67 150.55 1241.68 C145.95 1241.72 142.32 1241.27 137.98 1239.51 C137.98 1238.85 137.98 1238.19 137.98 1237.51 C137.27 1237.54 136.56 1237.58 135.82 1237.61 C129.67 1237.79 125.43 1237.41 119.98 1234.51 C119.98 1233.85 119.98 1233.19 119.98 1232.51 C118.41 1232.54 118.41 1232.54 116.81 1232.58 C115.43 1232.6 114.05 1232.62 112.67 1232.63 C111.98 1232.65 111.29 1232.67 110.58 1232.68 C106.81 1232.72 105.2 1232.65 101.98 1230.51 C101.98 1229.85 101.98 1229.19 101.98 1228.51 C100.83 1228.54 99.67 1228.58 98.48 1228.61 C96.94 1228.64 95.4 1228.67 93.86 1228.7 C93.1 1228.72 92.34 1228.75 91.55 1228.77 C86.58 1228.84 83.35 1228.16 78.98 1225.51 C78.98 1224.85 78.98 1224.19 78.98 1223.51 C77.71 1223.53 76.43 1223.55 75.12 1223.58 C73.45 1223.6 71.78 1223.62 70.11 1223.63 C69.27 1223.65 68.43 1223.67 67.56 1223.68 C66.75 1223.69 65.95 1223.7 65.12 1223.7 C64.37 1223.71 63.63 1223.72 62.86 1223.73 C60.98 1223.51 60.98 1223.51 58.98 1221.51 C57.03 1221.26 57.03 1221.26 54.81 1221.38 C53.98 1221.4 53.15 1221.41 52.3 1221.43 C50.56 1221.48 48.82 1221.53 47.08 1221.59 C42.46 1221.67 39.25 1221.44 34.98 1219.51 C31.93 1219.15 28.9 1219.01 25.82 1218.85 C23.07 1218.52 21.35 1217.91 18.98 1216.51 C18.98 1215.85 18.98 1215.19 18.98 1214.51 C17.86 1214.55 16.74 1214.6 15.59 1214.65 C14.12 1214.69 12.64 1214.72 11.17 1214.76 C10.43 1214.79 9.7 1214.82 8.94 1214.86 C6.78 1214.9 6.78 1214.9 2.98 1214.51 C2.52 1213.86 2.05 1213.2 1.57 1212.53 C0.2 1210.33 0.2 1210.33 -1.96 1210.12 C-4.49 1209.96 -6.99 1209.9 -9.52 1209.88 C-11.23 1209.86 -12.95 1209.82 -14.67 1209.78 C-15.43 1209.78 -16.19 1209.77 -16.98 1209.76 C-19.02 1209.51 -19.02 1209.51 -22.02 1207.51 C-22.02 1206.85 -22.02 1206.19 -22.02 1205.51 C-23.05 1205.55 -24.09 1205.6 -25.16 1205.65 C-26.53 1205.69 -27.9 1205.72 -29.27 1205.76 C-29.95 1205.79 -30.63 1205.82 -31.33 1205.86 C-33.34 1205.9 -33.34 1205.9 -37.02 1205.51 C-37.62 1204.86 -38.23 1204.21 -38.86 1203.54 C-42.39 1200.21 -46.59 1200.83 -51.27 1200.76 C-52.2 1200.73 -53.14 1200.7 -54.1 1200.67 C-56.41 1200.6 -58.71 1200.54 -61.02 1200.51 C-61.68 1199.19 -62.34 1197.87 -63.02 1196.51 C-64.59 1196.54 -64.59 1196.54 -66.19 1196.58 C-67.57 1196.6 -68.95 1196.62 -70.33 1196.63 C-71.02 1196.65 -71.71 1196.67 -72.42 1196.68 C-76.19 1196.72 -77.8 1196.65 -81.02 1194.51 C-81.02 1193.52 -81.02 1192.53 -81.02 1191.51 C-82.28 1191.53 -83.54 1191.55 -84.85 1191.58 C-86.51 1191.6 -88.17 1191.62 -89.83 1191.63 C-90.66 1191.65 -91.49 1191.67 -92.35 1191.68 C-93.16 1191.69 -93.96 1191.7 -94.79 1191.7 C-95.52 1191.71 -96.26 1191.72 -97.02 1191.73 C-99.02 1191.51 -99.02 1191.51 -102.02 1189.51 C-104.53 1189.23 -104.53 1189.23 -107.34 1189.31 C-108.37 1189.32 -109.4 1189.33 -110.45 1189.33 C-111.53 1189.35 -112.6 1189.37 -113.7 1189.38 C-115.33 1189.4 -115.33 1189.4 -116.99 1189.41 C-119.66 1189.43 -122.34 1189.47 -125.02 1189.51 C-125.02 1188.85 -125.02 1188.19 -125.02 1187.51 C-125.96 1187.46 -126.9 1187.41 -127.87 1187.36 C-129.73 1187.25 -129.73 1187.25 -131.64 1187.13 C-133.49 1187.03 -133.49 1187.03 -135.37 1186.92 C-138.85 1186.53 -141.75 1185.75 -145.02 1184.51 C-145.02 1183.85 -145.02 1183.19 -145.02 1182.51 C-146.59 1182.58 -146.59 1182.58 -148.2 1182.65 C-155.52 1182.87 -161.36 1183.05 -167.94 1179.45 C-171.11 1178.01 -174.25 1178 -177.7 1177.79 C-180.4 1177.46 -182.42 1176.4 -184.83 1175.19 C-189.2 1173.82 -194.03 1174.08 -198.59 1174.01 C-202.02 1173.51 -202.02 1173.51 -203.95 1171.51 C-207.04 1168.52 -210.38 1168.95 -214.45 1168.95 C-220.03 1168.91 -223.22 1168.59 -228.02 1165.51 C-230.93 1165.05 -230.93 1165.05 -233.95 1165.01 C-238.8 1164.73 -241.94 1164.11 -246.02 1161.51 C-246.02 1160.85 -246.02 1160.19 -246.02 1159.51 C-246.58 1159.51 -247.14 1159.52 -247.71 1159.52 C-250.25 1159.54 -252.79 1159.56 -255.33 1159.57 C-256.21 1159.58 -257.09 1159.59 -258 1159.6 C-258.85 1159.6 -259.69 1159.6 -260.57 1159.61 C-261.35 1159.61 -262.13 1159.62 -262.93 1159.62 C-265.02 1159.51 -265.02 1159.51 -268.02 1158.51 C-271.57 1158.28 -275.12 1158.11 -278.68 1157.99 C-282.96 1157.79 -286.02 1157.12 -290.02 1155.51 C-293.38 1155.45 -296.69 1155.64 -300.05 1155.83 C-301.03 1155.72 -302.01 1155.62 -303.02 1155.51 C-303.68 1154.53 -303.68 1154.53 -304.36 1153.54 C-305.79 1151.36 -305.79 1151.36 -307.86 1151.12 C-310.23 1150.96 -312.58 1150.9 -314.95 1150.88 C-316.57 1150.86 -318.18 1150.82 -319.79 1150.78 C-320.51 1150.78 -321.22 1150.77 -321.96 1150.76 C-324.32 1150.47 -325.96 1149.67 -328.02 1148.51 C-328.02 1147.85 -328.02 1147.19 -328.02 1146.51 C-329.82 1146.45 -329.82 1146.45 -331.66 1146.39 C-333.24 1146.33 -334.81 1146.26 -336.39 1146.2 C-337.18 1146.17 -337.98 1146.15 -338.8 1146.13 C-340.88 1146.03 -342.95 1145.78 -345.02 1145.51 C-345.68 1144.52 -346.34 1143.53 -347.02 1142.51 C-350.53 1142.15 -353.93 1142.07 -357.45 1142.07 C-361.44 1141.97 -364.17 1141.66 -367.58 1139.51 C-371.6 1137.17 -374.21 1137.01 -378.83 1136.95 C-382.79 1136.88 -382.79 1136.88 -386.02 1136.51 C-386.68 1135.52 -387.34 1134.53 -388.02 1133.51 C-391.55 1133.15 -394.99 1133.07 -398.54 1133.07 C-403.99 1132.93 -406.44 1131.61 -411.02 1128.51 C-413.79 1128.12 -416.24 1127.9 -419.02 1127.88 C-424.01 1127.79 -428.31 1127.35 -433.02 1125.51 C-433.02 1124.85 -433.02 1124.19 -433.02 1123.51 C-433.59 1123.48 -434.16 1123.46 -434.74 1123.43 C-437.31 1123.32 -439.88 1123.19 -442.45 1123.07 C-443.8 1123.01 -443.8 1123.01 -445.17 1122.95 C-446.03 1122.91 -446.88 1122.87 -447.76 1122.82 C-448.55 1122.79 -449.34 1122.75 -450.16 1122.71 C-452.02 1122.51 -452.02 1122.51 -453.02 1121.51 C-456.32 1121.48 -459.61 1121.58 -462.91 1121.67 C-466.02 1121.51 -466.02 1121.51 -469.02 1119.51 C-470.94 1119.19 -470.94 1119.19 -473.04 1119.2 C-474.2 1119.16 -474.2 1119.16 -475.38 1119.12 C-477 1119.09 -478.62 1119.06 -480.24 1119.03 C-485.37 1118.86 -490.15 1118.37 -494.02 1114.51 C-497.28 1114.22 -500.54 1114.06 -503.82 1113.89 C-506.76 1113.54 -508.52 1113.03 -511.02 1111.51 C-511.02 1110.85 -511.02 1110.19 -511.02 1109.51 C-512.17 1109.53 -513.33 1109.55 -514.52 1109.58 C-516.06 1109.6 -517.6 1109.62 -519.14 1109.63 C-519.9 1109.65 -520.66 1109.67 -521.45 1109.68 C-526.05 1109.72 -529.68 1109.27 -534.02 1107.51 C-534.02 1106.52 -534.02 1105.53 -534.02 1104.51 C-534.98 1104.53 -535.94 1104.55 -536.94 1104.58 C-538.83 1104.61 -538.83 1104.61 -540.77 1104.63 C-542.02 1104.66 -543.27 1104.68 -544.56 1104.7 C-547.74 1104.52 -549.38 1104.2 -552.02 1102.51 C-552.02 1101.85 -552.02 1101.19 -552.02 1100.51 C-553.73 1100.58 -553.73 1100.58 -555.49 1100.65 C-557.02 1100.69 -558.55 1100.72 -560.08 1100.76 C-560.83 1100.79 -561.58 1100.82 -562.36 1100.86 C-566.4 1100.93 -569.15 1100.71 -572.62 1098.53 C-576.47 1096.24 -578.83 1095.99 -583.27 1095.88 C-589.72 1095.7 -589.72 1095.7 -593.02 1093.51 C-593.02 1092.85 -593.02 1092.19 -593.02 1091.51 C-593.58 1091.49 -594.14 1091.47 -594.71 1091.45 C-597.25 1091.35 -599.79 1091.24 -602.33 1091.13 C-603.21 1091.1 -604.09 1091.07 -605 1091.04 C-605.85 1091 -606.69 1090.96 -607.57 1090.92 C-608.74 1090.87 -608.74 1090.87 -609.93 1090.83 C-612.02 1090.51 -612.02 1090.51 -615.02 1088.51 C-617.35 1088.84 -619.68 1089.17 -622.02 1089.51 C-622.68 1088.85 -623.34 1088.19 -624.02 1087.51 C-626.22 1087.05 -626.22 1087.05 -628.64 1086.88 C-629.87 1086.77 -629.87 1086.77 -631.12 1086.66 C-631.74 1086.61 -632.37 1086.56 -633.02 1086.51 C-633.35 1085.19 -633.68 1083.87 -634.02 1082.51 C-635.03 1082.28 -636.04 1082.05 -637.08 1081.82 C-641.33 1080.62 -644.71 1078.42 -648.02 1075.51 C-648.35 1074.85 -648.68 1074.19 -649.02 1073.51 C-649.86 1073.28 -650.71 1073.05 -651.58 1072.82 C-654.94 1071.54 -656.38 1070.46 -658.95 1068.07 C-661.47 1065.74 -663.56 1064.05 -666.77 1062.82 C-670.13 1061.46 -671.54 1060.07 -674.02 1057.51 C-676.65 1056.25 -676.65 1056.25 -679.02 1055.51 C-678.69 1054.52 -678.36 1053.53 -678.02 1052.51 C-678.9 1052.13 -678.9 1052.13 -679.8 1051.74 C-682.28 1050.36 -683.64 1048.92 -685.45 1046.76 C-686.05 1046.05 -686.65 1045.33 -687.27 1044.6 C-687.85 1043.91 -688.42 1043.22 -689.02 1042.51 C-689.52 1041.95 -690.02 1041.4 -690.54 1040.82 C-692.66 1038.47 -693.94 1036.92 -694.52 1033.76 C-694.68 1033.02 -694.85 1032.27 -695.02 1031.51 C-695.78 1031.22 -696.54 1030.93 -697.33 1030.63 C-701.24 1028.99 -702.23 1026.2 -704.02 1022.51 C-704.41 1021.77 -704.8 1021.02 -705.2 1020.26 C-706.02 1018.51 -706.02 1018.51 -707.02 1015.51 C-707.68 1015.51 -708.34 1015.51 -709.02 1015.51 C-709.12 1014.29 -709.22 1013.07 -709.33 1011.82 C-709.78 1008.07 -710.88 1005.66 -713.02 1002.51 C-713.02 1001.85 -713.02 1001.19 -713.02 1000.51 C-713.68 1000.18 -714.34 999.85 -715.02 999.51 C-715.35 997.51 -715.68 995.51 -716.02 993.51 C-716.68 993.18 -717.34 992.85 -718.02 992.51 C-721.23 987.12 -723.47 981.58 -725.02 975.51 C-725.35 974.74 -725.69 973.98 -726.04 973.2 C-727.48 969.23 -727.47 965.34 -727.67 961.15 C-727.76 958.35 -727.76 958.35 -730.02 956.51 C-732.03 949.94 -732.3 943.26 -732.26 936.44 C-732.27 935.48 -732.27 934.51 -732.27 933.52 C-732.28 930.29 -732.27 927.06 -732.26 923.83 C-732.26 921.49 -732.27 919.15 -732.27 916.81 C-732.28 911.06 -732.27 905.3 -732.26 899.55 C-732.26 892.65 -732.26 885.76 -732.26 878.86 C-732.27 866.14 -732.27 853.41 -732.26 840.69 C-732.25 828.09 -732.24 815.49 -732.24 802.88 C-732.24 802.1 -732.24 801.32 -732.24 800.51 C-732.24 797.32 -732.24 794.14 -732.24 790.96 C-732.25 761.1 -732.24 731.24 -732.22 701.39 C-732.21 674.86 -732.2 648.34 -732.2 621.81 C-732.2 620.11 -732.2 618.4 -732.2 616.7 C-732.2 615.86 -732.2 615.02 -732.2 614.15 C-732.2 609.91 -732.2 605.67 -732.2 601.43 C-732.2 600.18 -732.2 600.18 -732.2 598.9 C-732.2 576.73 -732.2 554.56 -732.19 532.4 C-732.19 531.61 -732.19 530.82 -732.19 530.01 C-732.19 526.84 -732.19 523.66 -732.19 520.49 C-732.18 509.46 -732.18 498.43 -732.18 487.4 C-732.18 473.19 -732.18 458.98 -732.17 444.76 C-732.16 437.91 -732.16 431.05 -732.16 424.2 C-732.16 417.93 -732.16 411.66 -732.15 405.38 C-732.15 403.11 -732.15 400.84 -732.15 398.57 C-732.15 395.49 -732.15 392.4 -732.14 389.32 C-732.15 388.43 -732.15 387.55 -732.15 386.64 C-732.11 373.14 -732.11 373.14 -729.02 368.51 C-727.71 363.38 -727.33 358.03 -726.71 352.79 C-726.01 349.47 -725.16 348.04 -723.02 345.51 C-722.66 343.85 -722.32 342.18 -722.02 340.51 C-721.36 339.85 -720.7 339.19 -720.02 338.51 C-719.32 336.99 -718.68 335.44 -718.08 333.88 C-717.73 332.99 -717.38 332.09 -717.02 331.17 C-716.16 328.89 -715.34 326.61 -714.52 324.32 C-713.55 321.7 -712.43 319.35 -711.02 316.95 C-707.55 310.99 -705.54 305.18 -704.02 298.51 C-703.03 298.51 -702.04 298.51 -701.02 298.51 C-700.81 297.83 -700.6 297.15 -700.39 296.45 C-697.81 290.94 -693.35 286.7 -689.02 282.51 C-688.23 281.64 -687.45 280.78 -686.64 279.88 C-684.02 277.51 -684.02 277.51 -680.83 276.51 C-679.9 276.18 -678.97 275.85 -678.02 275.51 C-676.94 273.25 -676.94 273.25 -676.02 270.51 C-672.61 265.71 -668.32 261.86 -663.85 258.09 C-662.01 256.55 -662.01 256.55 -660.46 254.87 C-658.31 252.85 -655.8 252.4 -653.02 251.51 C-651.34 250.52 -649.67 249.52 -648.02 248.51 C-647.36 248.51 -646.7 248.51 -646.02 248.51 C-645.69 247.85 -645.36 247.19 -645.02 246.51 C-641.68 245.61 -638.31 244.97 -634.92 244.29 C-633.48 243.9 -633.48 243.9 -632.02 243.51 C-631.69 242.85 -631.36 242.19 -631.02 241.51 C-631.68 241.18 -632.34 240.85 -633.02 240.51 C-629.06 240.18 -625.1 239.85 -621.02 239.51 C-620.69 238.52 -620.36 237.53 -620.02 236.51 C-619.16 236.39 -618.31 236.27 -617.43 236.14 C-615.77 235.89 -615.77 235.89 -614.08 235.63 C-612.42 235.39 -612.42 235.39 -610.74 235.14 C-609.39 234.83 -609.39 234.83 -608.02 234.51 C-607.69 233.85 -607.36 233.19 -607.02 232.51 C-604.25 231.88 -604.25 231.88 -600.77 231.38 C-599.63 231.22 -598.49 231.05 -597.31 230.88 C-594.5 230.56 -591.84 230.43 -589.02 230.51 C-588.69 229.85 -588.36 229.19 -588.02 228.51 C-588.02 229.17 -588.02 229.83 -588.02 230.51 C-586.04 230.18 -584.06 229.85 -582.02 229.51 C-582.02 228.85 -582.02 228.19 -582.02 227.51 C-580.96 227.4 -579.9 227.29 -578.8 227.18 C-577.42 227.02 -576.03 226.86 -574.64 226.7 C-573.94 226.63 -573.24 226.55 -572.52 226.48 C-570.67 226.26 -568.84 225.89 -567.02 225.51 C-566.36 224.52 -565.7 223.53 -565.02 222.51 C-562.77 222.08 -562.77 222.08 -560.01 222 C-559.02 221.96 -558.04 221.93 -557.02 221.89 C-555.99 221.87 -554.95 221.84 -553.89 221.82 C-552.85 221.79 -551.81 221.75 -550.74 221.72 C-548.16 221.63 -545.59 221.57 -543.02 221.51 C-543.02 220.85 -543.02 220.19 -543.02 219.51 C-538.39 218.23 -533.65 217.69 -528.91 217.01 C-526.09 216.66 -526.09 216.66 -524.02 215.51 C-522.02 215.47 -520.02 215.46 -518.02 215.51 C-518.02 214.85 -518.02 214.19 -518.02 213.51 C-517.38 213.43 -516.75 213.35 -516.09 213.26 C-513.15 212.89 -510.21 212.51 -507.27 212.13 C-505.67 211.93 -505.67 211.93 -504.04 211.72 C-498.92 211.05 -493.84 210.35 -488.77 209.38 C-482.83 208.33 -476.87 208.09 -470.86 207.85 C-465.86 207.64 -460.98 207.17 -456.02 206.51 C-455.36 206.51 -454.7 206.51 -454.02 206.51 C-454.02 205.85 -454.02 205.19 -454.02 204.51 C-452.83 204.4 -451.65 204.29 -450.44 204.18 C-448.88 204.02 -447.32 203.86 -445.77 203.7 C-444.6 203.59 -444.6 203.59 -443.41 203.48 C-438.91 203.09 -438.91 203.09 -435.05 200.98 C-431.67 198.54 -427.82 198.93 -423.77 198.82 C-422.93 198.79 -422.08 198.75 -421.22 198.72 C-419.15 198.63 -417.08 198.57 -415.02 198.51 C-415.02 197.85 -415.02 197.19 -415.02 196.51 C-408.9 195.1 -403.3 194.28 -397.02 194.51 C-396.69 193.52 -396.36 192.53 -396.02 191.51 C-396.02 192.17 -396.02 192.83 -396.02 193.51 C-392.22 192.54 -392.22 192.54 -389.02 190.51 C-387.62 190.31 -386.21 190.16 -384.8 190.04 C-383.95 189.97 -383.1 189.89 -382.22 189.81 C-380.42 189.65 -378.61 189.5 -376.81 189.35 C-375.53 189.23 -375.53 189.23 -374.23 189.11 C-373.06 189.01 -373.06 189.01 -371.86 188.9 C-370.95 188.71 -370.95 188.71 -370.02 188.51 C-369.69 187.85 -369.36 187.19 -369.02 186.51 C-366.45 185.65 -364.51 185.28 -361.86 185.04 C-361.06 184.97 -360.27 184.89 -359.45 184.81 C-357.78 184.65 -356.11 184.5 -354.44 184.35 C-353.26 184.23 -353.26 184.23 -352.04 184.11 C-350.96 184.01 -350.96 184.01 -349.85 183.9 C-347.78 183.63 -347.78 183.63 -346.02 181.51 C-343.78 181.04 -343.78 181.04 -340.99 180.73 C-339.98 180.61 -338.96 180.49 -337.92 180.37 C-336.29 180.19 -336.29 180.19 -334.64 180.01 C-332.43 179.75 -330.22 179.49 -328.01 179.23 C-326.96 179.11 -325.91 178.99 -324.82 178.86 C-321.76 178.48 -318.74 177.97 -315.7 177.38 C-309.77 176.31 -303.79 176.11 -297.77 175.94 C-292.86 175.76 -288.69 175.06 -284.02 173.51 C-284.02 173.18 -284.02 172.85 -284.02 172.51 C-276.43 171.52 -268.84 170.53 -261.02 169.51 C-261.02 168.85 -261.02 168.19 -261.02 167.51 C-250.62 166.52 -250.62 166.52 -240.02 165.51 C-240.02 164.85 -240.02 164.19 -240.02 163.51 C-239.42 163.43 -238.82 163.35 -238.21 163.26 C-235.52 162.9 -232.83 162.51 -230.14 162.13 C-229.2 162.01 -228.27 161.88 -227.3 161.75 C-226.4 161.62 -225.51 161.49 -224.59 161.36 C-223.34 161.19 -223.34 161.19 -222.08 161.01 C-219.81 160.65 -219.81 160.65 -218.02 158.51 C-214.78 158.18 -211.59 158.04 -208.34 157.94 C-206.56 157.86 -204.79 157.69 -203.02 157.51 C-202.69 156.85 -202.36 156.19 -202.02 155.51 C-201.36 155.51 -200.7 155.51 -200.02 155.51 C-200.02 155.18 -200.02 154.85 -200.02 154.51 C-194.05 153.18 -188.09 153.42 -182.02 153.51 C-181.69 152.85 -181.36 152.19 -181.02 151.51 C-180.23 151.55 -179.45 151.59 -178.64 151.63 C-175.85 151.8 -175.85 151.8 -174.02 149.51 C-171.76 149.04 -171.76 149.04 -168.96 148.73 C-167.93 148.61 -166.9 148.49 -165.85 148.36 C-164.77 148.25 -163.69 148.13 -162.58 148.01 C-156.46 147.32 -150.39 146.62 -144.34 145.45 C-139.32 144.5 -134.42 144.12 -129.33 143.95 C-123.5 143.72 -117.8 143.31 -112.02 142.51 C-112.02 141.85 -112.02 141.19 -112.02 140.51 C-105.42 139.52 -98.82 138.53 -92.02 137.51 C-92.68 136.85 -93.34 136.19 -94.02 135.51 C-92.88 135.45 -91.75 135.39 -90.58 135.32 C-89.06 135.24 -87.54 135.16 -86.02 135.07 C-85.27 135.03 -84.53 134.99 -83.76 134.95 C-78.81 134.67 -73.93 134.17 -69.02 133.51 C-69.02 132.85 -69.02 132.19 -69.02 131.51 C-63.97 130.47 -59.14 130.41 -54.02 130.51 C-53.69 129.85 -53.36 129.19 -53.02 128.51 C-52.69 128.84 -52.36 129.17 -52.02 129.51 C-48.77 128.42 -48.77 128.42 -46.02 126.51 C-42.87 126.06 -39.72 125.69 -36.56 125.35 C-33.01 124.92 -31.05 124.53 -28.02 122.51 C-23.71 121.61 -19.66 121.46 -15.27 121.48 C-13.79 121.49 -13.79 121.49 -12.28 121.49 C-11.53 121.5 -10.79 121.5 -10.02 121.51 C-10.02 120.91 -10.02 120.31 -10.02 119.69 C-10.09 105.11 -10.14 90.53 -10.17 75.95 C-10.19 68.9 -10.21 61.85 -10.24 54.8 C-10.27 48 -10.29 41.19 -10.3 34.39 C-10.31 31.79 -10.32 29.2 -10.33 26.6 C-10.35 22.97 -10.36 19.33 -10.36 15.7 C-10.37 14.08 -10.37 14.08 -10.39 12.43 C-10.38 11.44 -10.38 10.45 -10.38 9.43 C-10.38 8.57 -10.38 7.71 -10.38 6.83 C-9.36 0.4 -5.95 0.01 0 0 Z " fill="#00E68F" transform="translate(790.0154876708984,5.4920654296875)"/>
<path d="M0 0 C0.72 -0.01 1.44 -0.01 2.18 -0.02 C4.59 -0.03 7 -0.02 9.42 -0.01 C11.15 -0.02 12.87 -0.02 14.6 -0.03 C19.3 -0.05 24 -0.04 28.7 -0.03 C33.61 -0.02 38.52 -0.03 43.43 -0.03 C51.68 -0.04 59.94 -0.03 68.19 -0.01 C77.73 0.01 87.27 0 96.82 -0.02 C105 -0.04 113.19 -0.04 121.38 -0.03 C126.27 -0.02 131.17 -0.02 136.06 -0.04 C140.66 -0.05 145.26 -0.04 149.86 -0.02 C151.55 -0.01 153.24 -0.01 154.93 -0.02 C157.23 -0.03 159.54 -0.02 161.84 0 C163.13 0 164.42 0 165.75 0 C168.98 0.51 168.98 0.51 171.4 2.32 C173.69 5.47 173.56 8.46 173.53 12.21 C173.54 12.99 173.55 13.76 173.56 14.55 C173.59 17.09 173.59 19.64 173.59 22.18 C173.61 23.95 173.63 25.71 173.64 27.48 C173.69 32.12 173.71 36.76 173.72 41.4 C173.74 46.14 173.78 50.88 173.82 55.62 C173.9 64.92 173.95 74.21 173.98 83.51 C176.95 83.84 179.92 84.17 182.98 84.51 C179.9 86.57 179.28 86.75 175.8 86.63 C174.54 86.59 173.28 86.55 171.98 86.51 C170.94 89.63 170.86 91.78 170.86 95.05 C170.86 96.21 170.85 97.37 170.85 98.57 C170.85 100.5 170.85 100.5 170.86 102.46 C170.85 103.84 170.85 105.22 170.85 106.6 C170.85 110.41 170.85 114.22 170.85 118.03 C170.85 122.17 170.85 126.31 170.84 130.45 C170.84 137.71 170.84 144.98 170.84 152.24 C170.84 163.04 170.84 173.85 170.83 184.65 C170.82 205.08 170.82 225.51 170.82 245.94 C170.82 261.74 170.81 277.54 170.81 293.34 C170.81 297.88 170.81 302.43 170.81 306.98 C170.81 308.11 170.81 309.24 170.81 310.4 C170.8 342.24 170.8 374.07 170.8 405.9 C170.8 407.1 170.8 408.3 170.8 409.54 C170.8 415.63 170.8 421.72 170.8 427.81 C170.8 429.02 170.8 430.23 170.8 431.47 C170.8 433.92 170.8 436.36 170.8 438.81 C170.8 476.74 170.79 514.68 170.78 552.62 C170.76 595.27 170.75 637.92 170.76 680.57 C170.76 685.13 170.76 689.69 170.76 694.26 C170.76 695.38 170.76 696.5 170.76 697.66 C170.76 715.64 170.75 733.62 170.74 751.6 C170.73 769.74 170.73 787.87 170.74 806.01 C170.74 815.81 170.74 825.61 170.73 835.41 C170.7 873.02 170.82 910.53 172.67 948.11 C173.23 959.9 173.2 971.71 172.98 983.51 C150.84 983.53 128.69 983.55 106.54 983.56 C96.26 983.56 85.97 983.57 75.69 983.58 C66.73 983.59 57.77 983.6 48.81 983.6 C44.07 983.6 39.32 983.61 34.57 983.61 C30.11 983.62 25.65 983.62 21.19 983.62 C19.54 983.62 17.9 983.62 16.26 983.63 C14.02 983.63 11.79 983.63 9.56 983.63 C8.31 983.63 7.05 983.63 5.76 983.63 C2.98 983.51 2.98 983.51 1.98 982.51 C1.7 980.34 1.47 978.17 1.27 975.99 C1.2 975.33 1.14 974.68 1.08 974 C0.87 971.9 0.68 969.8 0.48 967.7 C0.29 965.6 0.09 963.51 -0.11 961.42 C-0.29 959.51 -0.47 957.61 -0.64 955.7 C-0.94 953.19 -1.36 950.94 -2.02 948.51 C-3.25 936.2 -3.13 923.86 -3.02 911.51 C-5 911.83 -5 911.83 -7.02 912.51 C-7.3 913.27 -7.59 914.03 -7.89 914.82 C-9.43 918.49 -11.69 919.42 -15.02 921.51 C-16.7 923.15 -18.37 924.82 -20.02 926.51 C-20.9 927.34 -21.79 928.16 -22.7 929.02 C-27.36 933.45 -31.3 937.48 -34.2 943.32 C-37.53 949.91 -41.3 953.2 -48.29 955.66 C-49.48 956.04 -50.67 956.43 -51.89 956.82 C-58.15 958.89 -61.58 961.54 -66.21 966.11 C-72.03 971.08 -79.18 974.15 -86.02 977.51 C-88.03 978.51 -90.04 979.52 -92.05 980.53 C-93.78 981.39 -95.52 982.24 -97.26 983.1 C-100.12 984.5 -100.12 984.5 -103.02 986.51 C-105.28 986.97 -107.57 987.34 -109.86 987.66 C-110.87 987.8 -110.87 987.8 -111.91 987.95 C-113.36 988.16 -114.81 988.37 -116.26 988.57 C-126.44 989.99 -136.56 991.45 -146.58 993.76 C-153.49 995.34 -160.12 996.04 -167.21 996.23 C-170.25 996.45 -172.79 996.87 -175.73 997.55 C-181.54 998.78 -187.06 998.55 -192.95 998.2 C-193.98 998.15 -195.01 998.1 -196.06 998.05 C-203.56 997.66 -203.56 997.66 -207.02 996.51 C-209.35 996.46 -211.68 996.47 -214.02 996.51 C-229.77 996.64 -229.77 996.64 -235.78 994.54 C-238.96 993.52 -241.9 992.98 -245.21 992.54 C-246.39 992.38 -247.57 992.23 -248.79 992.06 C-250.04 991.9 -251.29 991.74 -252.58 991.57 C-254.51 991.31 -254.51 991.31 -256.49 991.04 C-262.37 990.25 -268.25 989.47 -274.14 988.76 C-284.11 987.51 -292.8 985.73 -302.02 981.51 C-303.45 980.89 -304.88 980.27 -306.31 979.65 C-313.49 976.55 -320.61 973.31 -327.64 969.88 C-328.68 969.38 -329.73 968.87 -330.8 968.34 C-333.42 966.85 -335.47 965.37 -337.79 963.48 C-342.22 960.07 -346.65 958.88 -352.02 957.57 C-359.47 955.55 -364.95 953.61 -370.02 947.51 C-373.81 943.52 -377.75 940.55 -382.27 937.46 C-386.1 934.74 -389.68 931.76 -393.29 928.76 C-395.86 926.64 -398.46 924.57 -401.08 922.51 C-409.17 916.03 -416.65 908.98 -424.02 901.7 C-424.68 901.05 -425.33 900.4 -426.01 899.74 C-426.63 899.12 -427.25 898.5 -427.89 897.86 C-428.44 897.31 -429 896.76 -429.57 896.2 C-431.11 894.4 -431.98 892.62 -433.02 890.51 C-434.68 888.83 -436.34 887.17 -438.02 885.51 C-439.98 883.13 -441.81 880.67 -443.64 878.2 C-444.16 877.5 -444.67 876.81 -445.21 876.1 C-449.35 870.5 -453.33 864.8 -457.19 859 C-459.35 855.79 -461.56 852.86 -464.18 850 C-467.09 846.67 -468.31 843.54 -469.52 839.26 C-472.04 830.91 -475.5 823.67 -480.95 816.81 C-484.31 812.39 -486.18 807.76 -488.08 802.57 C-489.89 797.68 -491.64 793.01 -494.39 788.57 C-502.16 774.91 -504.26 758.84 -506.2 743.51 C-506.67 739.96 -507.14 736.42 -507.62 732.88 C-507.73 732.04 -507.85 731.2 -507.97 730.34 C-508.7 725.13 -509.8 720.21 -511.31 715.17 C-512.85 709.37 -513.51 703.4 -514.2 697.45 C-514.33 696.34 -514.33 696.34 -514.47 695.21 C-516.31 678.93 -516.37 662.63 -516.33 646.26 C-516.33 645 -516.32 643.75 -516.32 642.45 C-516.18 602.84 -516.18 602.84 -513.02 596.51 C-512.74 593.33 -512.57 590.15 -512.39 586.96 C-512.07 584 -511.43 581.48 -510.57 578.65 C-509.27 573.62 -508.73 568.4 -508.02 563.26 C-506.95 555.77 -505.86 548.31 -504.42 540.88 C-504.02 538.56 -503.8 536.29 -503.64 533.95 C-502.89 526.53 -499.3 519.96 -495.94 513.41 C-494.77 511 -493.84 508.5 -492.93 505.98 C-491.68 502.59 -490.35 499.24 -489.02 495.88 C-488.77 495.25 -488.52 494.62 -488.26 493.96 C-486.02 488.34 -483.56 483.1 -480.08 478.13 C-475.01 470.65 -471.23 462.52 -468.58 453.88 C-467.33 450.05 -465.72 447.54 -463.02 444.51 C-461.67 442.52 -460.33 440.52 -459.02 438.51 C-457 435.47 -454.99 432.43 -452.96 429.41 C-451.85 427.75 -450.75 426.09 -449.67 424.42 C-447.46 421.11 -445.21 418.8 -442.08 416.32 C-438.69 413.5 -437.17 411.05 -435.45 407.01 C-431.72 398.74 -425.08 393.1 -418.52 387.04 C-416.79 385.38 -416.79 385.38 -415.02 382.51 C-413.94 382.1 -412.87 381.68 -411.77 381.26 C-407.23 379.47 -404.97 376.25 -402.02 372.51 C-397.48 367.6 -392.27 363.6 -387.02 359.51 C-385.58 358.37 -385.58 358.37 -384.12 357.2 C-378.3 352.67 -372.56 349.05 -365.89 345.91 C-362.25 344.13 -358.84 342.07 -355.39 339.95 C-353.08 338.55 -350.75 337.24 -348.39 335.95 C-342.96 332.96 -337.7 329.84 -332.83 326.01 C-323.31 319.21 -310.86 317.02 -299.64 314.45 C-296.84 313.79 -294.04 313.13 -291.24 312.47 C-290.56 312.31 -289.88 312.15 -289.18 311.99 C-284.35 310.84 -279.53 309.64 -274.73 308.39 C-273.53 308.07 -272.33 307.76 -271.1 307.44 C-268.52 306.66 -266.4 305.73 -264.02 304.51 C-261.65 304.11 -259.27 303.78 -256.89 303.51 C-252.59 303.01 -248.4 302.41 -244.16 301.52 C-210.98 294.73 -167.9 295 -135.02 303.51 C-134.26 303.7 -133.51 303.89 -132.74 304.09 C-130.39 304.69 -128.05 305.32 -125.7 305.95 C-120.36 307.37 -115.02 308.77 -109.64 310.07 C-104.53 311.33 -99.54 312.88 -94.52 314.48 C-91.3 315.43 -88.08 316.21 -84.81 316.96 C-78.04 318.52 -72.56 320.23 -67.02 324.51 C-65.85 325.36 -64.69 326.21 -63.52 327.06 C-60.89 328.99 -58.26 330.92 -55.64 332.86 C-52.85 334.91 -50.03 336.87 -47.14 338.76 C-40.23 343.3 -34.08 348.03 -28.77 354.41 C-26.89 356.65 -24.93 358.79 -22.95 360.95 C-19.68 364.6 -16.94 368.41 -14.34 372.56 C-13.05 374.46 -11.65 375.91 -10.02 377.51 C-9.99 345.29 -9.97 313.08 -9.96 280.87 C-9.96 277.07 -9.96 273.27 -9.96 269.47 C-9.96 268.71 -9.96 267.96 -9.96 267.18 C-9.96 254.91 -9.95 242.65 -9.94 230.39 C-9.93 217.81 -9.92 205.24 -9.92 192.67 C-9.92 184.9 -9.92 177.14 -9.91 169.37 C-9.9 163.43 -9.9 157.48 -9.9 151.54 C-9.9 149.09 -9.9 146.65 -9.9 144.2 C-9.89 140.88 -9.89 137.56 -9.9 134.23 C-9.89 133.25 -9.89 132.27 -9.89 131.26 C-9.89 130.38 -9.89 129.49 -9.89 128.58 C-9.89 127.81 -9.89 127.05 -9.89 126.25 C-9.83 124.48 -9.83 124.48 -11.02 123.51 C-13.88 123.43 -16.72 123.42 -19.58 123.45 C-20.79 123.45 -20.79 123.45 -22.02 123.46 C-24.02 123.47 -26.02 123.49 -28.02 123.51 C-28.02 123.18 -28.02 122.85 -28.02 122.51 C-23.71 121.74 -19.64 121.45 -15.25 121.48 C-14.27 121.48 -13.29 121.49 -12.27 121.49 C-11.16 121.5 -11.16 121.5 -10.02 121.51 C-10.02 120.91 -10.02 120.31 -10.02 119.69 C-10.09 105.11 -10.14 90.53 -10.17 75.95 C-10.19 68.9 -10.21 61.85 -10.24 54.8 C-10.27 48 -10.29 41.19 -10.3 34.39 C-10.31 31.79 -10.32 29.2 -10.33 26.6 C-10.35 22.97 -10.36 19.33 -10.36 15.7 C-10.37 14.08 -10.37 14.08 -10.39 12.43 C-10.38 11.44 -10.38 10.45 -10.38 9.43 C-10.38 8.57 -10.38 7.71 -10.38 6.83 C-9.36 0.4 -5.95 0.01 0 0 Z " fill="#000100" transform="translate(790.0154876708984,5.4920654296875)"/>
<path d="M0 0 C0.71 0.32 1.41 0.64 2.14 0.97 C5.14 2.05 7.54 2.34 10.72 2.49 C12.35 2.59 12.35 2.59 14.02 2.68 C15.17 2.75 16.32 2.81 17.5 2.88 C27.05 3.51 35.03 4.64 44 8 C45.57 8.49 47.14 8.98 48.71 9.45 C49.55 9.71 50.39 9.96 51.26 10.23 C52.91 10.73 54.56 11.22 56.2 11.72 C61.43 13.34 66.19 15.41 71 18 C75.57 20.44 79.88 22.29 84.88 23.75 C94.13 26.75 100.13 32.17 105.11 40.37 C107.72 44.01 110.78 47.09 113.94 50.25 C114.82 51.14 114.82 51.14 115.71 52.04 C118.58 54.86 121.44 57.4 124.75 59.69 C132.44 65.16 134.85 73.02 137.68 81.64 C139.17 86.04 140.85 89.71 143.5 93.56 C147.61 99.56 149.89 106.03 152.25 112.84 C153.02 115.07 153.83 117.28 154.64 119.49 C155.18 120.97 155.71 122.45 156.25 123.94 C156.5 124.61 156.74 125.28 157 125.98 C159.94 134.26 161.34 142.7 162.56 151.38 C162.81 153.13 163.06 154.89 163.32 156.65 C163.48 157.8 163.48 157.8 163.64 158.97 C163.98 161.19 163.98 161.19 165 164 C165.09 165.53 165.13 167.07 165.13 168.6 C165.13 169.54 165.14 170.47 165.14 171.43 C165.14 172.94 165.14 172.94 165.13 174.48 C165.13 176.04 165.13 176.04 165.14 177.63 C165.14 179.83 165.13 182.04 165.13 184.24 C165.13 187.59 165.13 190.94 165.14 194.29 C165.14 196.44 165.13 198.58 165.13 200.73 C165.13 201.72 165.14 202.71 165.14 203.74 C165.11 211.09 164.78 218.35 163.05 225.52 C162.88 226.26 162.71 227 162.53 227.77 C162.35 228.5 162.18 229.24 162 230 C161.69 231.45 161.38 232.91 161.07 234.36 C160.76 235.82 160.44 237.29 160.12 238.75 C159.98 239.46 159.83 240.17 159.68 240.9 C157.19 252.35 153.3 263.25 148.79 274.04 C147.99 275.96 147.21 277.88 146.42 279.8 C145.91 281.04 145.39 282.28 144.88 283.53 C144.42 284.63 143.96 285.73 143.49 286.86 C141.93 290.15 140.03 292.99 138 296 C136.64 299.52 135.5 303.07 134.34 306.66 C132.96 310.09 131.42 312.23 129 315 C128.39 315.81 127.77 316.63 127.14 317.46 C122.34 323.75 117.49 328.64 110.46 332.34 C107.54 334.31 106.54 336.1 104.88 339.19 C101 345.57 96.2 349.03 90 353 C89.36 353.46 88.73 353.93 88.07 354.4 C82.03 358.71 75.87 361.19 68.88 363.56 C67.22 364.14 67.22 364.14 65.53 364.73 C62.36 365.83 59.18 366.92 56 368 C54.78 368.42 54.78 368.42 53.54 368.84 C49.38 370.27 45.19 371.65 41 373 C40.08 373.31 39.17 373.61 38.23 373.93 C5.91 384.37 -34.56 377.88 -64.74 364.35 C-68.02 362.99 -71.27 361.99 -74.69 361.06 C-86.15 357.67 -94.79 350.59 -102.12 341.31 C-103.76 339.3 -105.25 337.92 -107.25 336.31 C-108.61 335.17 -108.61 335.17 -110 334 C-110 333.34 -110 332.68 -110 332 C-110.66 331.77 -111.32 331.55 -112 331.31 C-123.08 326.47 -129.52 318.49 -133.95 307.32 C-134.85 304.96 -135.72 302.58 -136.53 300.18 C-138.22 295.29 -140.1 292.56 -144 289 C-145.15 287.11 -145.15 287.11 -145.94 285.19 C-146.26 284.41 -146.58 283.63 -146.91 282.83 C-147.27 281.9 -147.63 280.96 -148 280 C-148.46 278.81 -148.93 277.62 -149.41 276.39 C-150.99 272.28 -152.5 268.14 -154 264 C-154.45 262.78 -154.89 261.56 -155.36 260.3 C-157.8 253.35 -159.71 246.44 -161.25 239.25 C-161.41 238.49 -161.58 237.74 -161.74 236.96 C-163.79 226.87 -164.16 216.75 -164.2 206.48 C-164.21 205.31 -164.21 204.14 -164.22 202.93 C-164.23 200.46 -164.24 197.98 -164.24 195.51 C-164.25 191.8 -164.28 188.1 -164.31 184.39 C-164.41 162.4 -163.99 137.54 -154.06 117.34 C-152.67 114.28 -151.64 111.13 -150.56 107.94 C-148.31 101.55 -145.58 96.43 -141.53 91.05 C-138.16 86.39 -136.2 81.93 -134.56 76.44 C-131.67 66.92 -127.12 62.41 -119 57 C-117.3 55.17 -115.72 53.26 -114.12 51.34 C-111.57 48.52 -108.78 46.02 -105.94 43.5 C-101.9 39.9 -98.35 36.3 -95.38 31.75 C-90.38 25.39 -83.76 24.26 -76.3 22.29 C-71.28 20.9 -67.95 19.53 -64 16 C-56.41 11.99 -48.14 9.78 -39.88 7.61 C-36.14 6.9 -36.14 6.9 -33 5 C-22.57 2.42 -11.68 2.4 -1 2 C-0.67 1.34 -0.34 0.68 0 0 Z " fill="#00E68F" transform="translate(620,463)"/>
<path d="M0 0 C0.33 0 0.66 0 1 0 C1 291.39 1 582.78 1 883 C0.67 883 0.34 883 0 883 C0 591.61 0 300.22 0 0 Z " fill="#000100" transform="translate(1212,235)"/>
<path d="M0 0 C3.35 0.02 6.69 0.02 10.04 0.02 C13.29 0.02 16.53 0.03 19.77 0.04 C21.55 0.04 21.55 0.04 23.37 0.04 C38.25 0.13 38.25 0.13 43.06 1.21 C43.55 2.2 43.55 2.2 44.06 3.21 C41.32 4.58 39.09 4.33 36.06 4.21 C35.07 3.71 35.07 3.71 34.06 3.21 C24.64 1.65 14.89 2.05 5.37 2.08 C2.63 2.08 -0.11 2.08 -2.85 2.07 C-11.12 2.07 -19.29 2.17 -27.53 2.98 C-30.77 3.28 -33.94 3.3 -37.19 3.27 C-38.29 3.26 -39.39 3.25 -40.52 3.24 C-41.32 3.23 -42.12 3.22 -42.94 3.21 C-42.94 2.88 -42.94 2.55 -42.94 2.21 C-28.66 -0.1 -14.44 -0.07 0 0 Z " fill="#000803" transform="translate(1047.940673828125,80.794189453125)"/>
<path d="M0 0 C0.66 -0 1.33 -0 2.01 -0 C3.42 -0 4.82 -0 6.22 0 C8.31 0.01 10.4 0 12.49 -0 C21.65 -0.01 30.71 0.41 39.84 1.13 C39.84 1.46 39.84 1.79 39.84 2.13 C33.82 2.88 27.96 3.28 21.9 3.27 C21.08 3.27 20.27 3.27 19.43 3.27 C17.73 3.27 16.02 3.27 14.31 3.26 C11.72 3.26 9.12 3.26 6.53 3.27 C4.86 3.27 3.19 3.27 1.52 3.27 C0.76 3.27 -0.01 3.27 -0.8 3.27 C-5.35 3.25 -9.66 2.88 -14.16 2.13 C-14.16 1.8 -14.16 1.47 -14.16 1.13 C-9.39 0.37 -4.82 0 0 0 Z " fill="#000100" transform="translate(1039.15625,1263.8671875)"/>
<path d="M0 0 C-2.34 2.34 -9.04 1.41 -12.39 1.52 C-13.18 1.55 -13.98 1.59 -14.8 1.62 C-15.9 1.66 -15.9 1.66 -17.02 1.7 C-19.32 1.91 -19.32 1.91 -22 4 C-25.36 4.2 -25.36 4.2 -29.19 4.12 C-30.46 4.11 -31.73 4.09 -33.04 4.07 C-34.51 4.04 -34.51 4.04 -36 4 C-35.67 3.34 -35.34 2.68 -35 2 C-27.53 0.04 -19.56 -0.25 -11.88 -0.69 C-11.05 -0.74 -10.22 -0.78 -9.36 -0.83 C-5.94 -1 -3.28 -1.09 0 0 Z " fill="#00160B" transform="translate(329,214)"/>
<path d="M0 0 C-2.28 2.28 -8.5 1.41 -11.74 1.52 C-15.61 1.69 -17.71 1.81 -21 4 C-24.14 3.98 -24.14 3.98 -27.69 3.62 C-28.87 3.51 -30.05 3.4 -31.26 3.29 C-32.62 3.15 -32.62 3.15 -34 3 C-30.55 0.7 -28.78 0.62 -24.69 0.33 C-23.45 0.24 -22.21 0.16 -20.93 0.06 C-19.63 -0.02 -18.34 -0.1 -17 -0.19 C-15.05 -0.33 -15.05 -0.33 -13.07 -0.47 C-3.4 -1.13 -3.4 -1.13 0 0 Z " fill="#00160A" transform="translate(502,182)"/>
<path d="M0 0 C-2.34 2.34 -9.04 1.41 -12.39 1.52 C-13.18 1.55 -13.98 1.59 -14.8 1.62 C-15.54 1.65 -16.27 1.67 -17.02 1.7 C-19.32 1.91 -19.32 1.91 -22 4 C-24.48 3.98 -24.48 3.98 -27.19 3.62 C-28.54 3.46 -28.54 3.46 -29.92 3.29 C-30.95 3.15 -30.95 3.15 -32 3 C-26.19 -0.87 -17.98 -0.26 -11.12 -0.62 C-10.27 -0.68 -9.42 -0.73 -8.54 -0.78 C-7.72 -0.83 -6.91 -0.87 -6.07 -0.91 C-5.34 -0.95 -4.6 -1 -3.84 -1.04 C-2 -1 -2 -1 0 0 Z " fill="#001108" transform="translate(672,150)"/>
<path d="M0 0 C0.99 0.33 1.98 0.66 3 1 C-3.67 7.67 -10.33 14.33 -17 21 C-17.66 20.67 -18.32 20.34 -19 20 C-16.24 17.24 -13.48 14.48 -10.7 11.74 C-9.55 10.6 -8.4 9.45 -7.25 8.31 C-6.37 7.44 -6.37 7.44 -5.46 6.55 C-2.35 3.57 -2.35 3.57 0 0 Z " fill="#00AE6B" transform="translate(134,262)"/>
<path d="M0 0 C6.6 0 13.2 0 20 0 C20.33 0.66 20.66 1.32 21 2 C18.26 3.37 16.03 3.13 13 3 C12.34 2.67 11.68 2.34 11 2 C9.13 1.77 7.25 1.59 5.38 1.44 C4.37 1.35 3.37 1.27 2.34 1.18 C1.57 1.12 0.79 1.06 0 1 C0 0.67 0 0.34 0 0 Z " fill="#001F0E" transform="translate(1071,82)"/>
<path d="M0 0 C0 0.66 0 1.32 0 2 C-4.95 2 -9.9 2 -15 2 C-14.67 1.34 -14.34 0.68 -14 0 C-11.86 -0.45 -11.86 -0.45 -9.19 -0.69 C-8.31 -0.77 -7.44 -0.86 -6.54 -0.95 C-4.13 -1 -2.29 -0.71 0 0 Z " fill="#007D4A" transform="translate(758,132)"/>
<path d="M0 0 C-1.11 1.49 -1.11 1.49 -3 3 C-5.92 3.29 -5.92 3.29 -9.19 3.19 C-10.27 3.16 -11.36 3.13 -12.48 3.11 C-13.73 3.05 -13.73 3.05 -15 3 C-15 2.34 -15 1.68 -15 1 C-9.92 0.15 -5.15 -0.09 0 0 Z " fill="#006C40" transform="translate(631,154)"/>
<path d="M0 0 C1.32 0.33 2.64 0.66 4 1 C1.69 3.31 -0.62 5.62 -3 8 C-3.66 7.67 -4.32 7.34 -5 7 C-3.73 4.16 -2.55 1.86 0 0 Z " fill="#00AE6B" transform="translate(1139,1230)"/>
<path d="M0 0 C-1.71 2.11 -2.52 2.94 -5.26 3.29 C-6.06 3.26 -6.86 3.22 -7.69 3.19 C-8.9 3.15 -8.9 3.15 -10.14 3.11 C-11.06 3.05 -11.06 3.05 -12 3 C-12.33 2.34 -12.66 1.68 -13 1 C-8.62 0.41 -4.42 -0.14 0 0 Z " fill="#007041" transform="translate(457,186)"/>
<path d="M0 0 C0 0.33 0 0.66 0 1 C-9.41 1.18 -9.41 1.18 -14 0 C-14 -0.33 -14 -0.66 -14 -1 C-12.42 -1.22 -10.83 -1.43 -9.25 -1.62 C-8.37 -1.74 -7.49 -1.86 -6.58 -1.98 C-3.77 -2 -2.37 -1.45 0 0 Z " fill="#000602" transform="translate(690,1197)"/>
<path d="M0 0 C5.94 0 11.88 0 18 0 C18.33 0.66 18.66 1.32 19 2 C12.73 1.67 6.46 1.34 0 1 C0 0.67 0 0.34 0 0 Z " fill="#000100" transform="translate(177,1097)"/>
<path d="M0 0 C0.33 0.66 0.66 1.32 1 2 C-6.43 2.29 -6.43 2.29 -10 0 C-3.34 -1.36 -3.34 -1.36 0 0 Z " fill="#000A04" transform="translate(849,1228)"/>
<path d="M0 0 C5.94 0 11.88 0 18 0 C18 0.33 18 0.66 18 1 C12.06 1 6.12 1 0 1 C0 0.67 0 0.34 0 0 Z " fill="#000100" transform="translate(690,1198)"/>
<path d="M0 0 C5.94 0 11.88 0 18 0 C18 0.33 18 0.66 18 1 C12.06 1 6.12 1 0 1 C0 0.67 0 0.34 0 0 Z " fill="#000100" transform="translate(525,1166)"/>
<path d="M0 0 C5.94 0 11.88 0 18 0 C18 0.33 18 0.66 18 1 C12.06 1 6.12 1 0 1 C0 0.67 0 0.34 0 0 Z " fill="#000100" transform="translate(337,1129)"/>
<path d="M0 0 C3.3 0 6.6 0 10 0 C10.33 0.66 10.66 1.32 11 2 C9.74 2.04 8.48 2.08 7.19 2.12 C6.48 2.15 5.77 2.17 5.04 2.2 C3 2 3 2 0 0 Z " fill="#000501" transform="translate(326,1127)"/>
<path d="M0 0 C8.57 -0.29 8.57 -0.29 12 2 C7.84 2.08 4.05 1.98 0 1 C0 0.67 0 0.34 0 0 Z " fill="#000502" transform="translate(513,1164)"/>
<path d="M0 0 C4.62 0 9.24 0 14 0 C14 0.33 14 0.66 14 1 C9.38 1 4.76 1 0 1 C0 0.67 0 0.34 0 0 Z " fill="#000100" transform="translate(854,1230)"/>
<path d="M0 0 C3.96 0 7.92 0 12 0 C11.67 0.66 11.34 1.32 11 2 C7.37 1.67 3.74 1.34 0 1 C0 0.67 0 0.34 0 0 Z " fill="#000100" transform="translate(778,1216)"/>
<path d="M0 0 C4.29 0 8.58 0 13 0 C13 0.33 13 0.66 13 1 C8.71 1 4.42 1 0 1 C0 0.67 0 0.34 0 0 Z " fill="#000100" transform="translate(736,1207)"/>
<path d="M0 0 C1.31 2.62 0.9 4.23 0.56 7.12 C0.46 8.04 0.36 8.95 0.25 9.88 C0.17 10.58 0.09 11.28 0 12 C-0.33 12 -0.66 12 -1 12 C-1.03 10.19 -1.05 8.38 -1.06 6.56 C-1.07 5.55 -1.09 4.54 -1.1 3.5 C-1 1 -1 1 0 0 Z " fill="#000100" transform="translate(1208,1129)"/>
<path d="M0 0 C1.94 0.38 1.94 0.38 4 1 C4.33 1.66 4.66 2.32 5 3 C3.35 3 1.7 3 0 3 C0 2.01 0 1.02 0 0 Z " fill="#001509" transform="translate(172,1094)"/>
<path d="M0 0 C3.63 0 7.26 0 11 0 C11 0.33 11 0.66 11 1 C7.37 1 3.74 1 0 1 C0 0.67 0 0.34 0 0 Z " fill="#000100" transform="translate(1003,1262)"/>
<path d="M0 0 C3.63 0 7.26 0 11 0 C11 0.33 11 0.66 11 1 C7.37 1 3.74 1 0 1 C0 0.67 0 0.34 0 0 Z " fill="#000100" transform="translate(939,1248)"/>
<path d="M0 0 C3.3 0 6.6 0 10 0 C10 0.33 10 0.66 10 1 C6.7 1 3.4 1 0 1 C0 0.67 0 0.34 0 0 Z " fill="#000100" transform="translate(899,1239)"/>
<path d="M0 0 C3.3 0 6.6 0 10 0 C10 0.33 10 0.66 10 1 C6.7 1 3.4 1 0 1 C0 0.67 0 0.34 0 0 Z " fill="#000100" transform="translate(574,1175)"/>
<path d="M0 0 C3.3 0 6.6 0 10 0 C10 0.33 10 0.66 10 1 C6.7 1 3.4 1 0 1 C0 0.67 0 0.34 0 0 Z " fill="#000100" transform="translate(490,1161)"/>
<path d="M0 0 C2.97 0 5.94 0 9 0 C9 0.33 9 0.66 9 1 C6.03 1 3.06 1 0 1 C0 0.67 0 0.34 0 0 Z " fill="#000100" transform="translate(964,1253)"/>
<path d="M0 0 C2.97 0 5.94 0 9 0 C9 0.33 9 0.66 9 1 C6.03 1 3.06 1 0 1 C0 0.67 0 0.34 0 0 Z " fill="#000100" transform="translate(475,1157)"/>
<path d="M0 0 C2.97 0 5.94 0 9 0 C9 0.33 9 0.66 9 1 C6.03 1 3.06 1 0 1 C0 0.67 0 0.34 0 0 Z " fill="#000100" transform="translate(451,1152)"/>
<path d="M0 0 C2.97 0 5.94 0 9 0 C9 0.33 9 0.66 9 1 C6.03 1 3.06 1 0 1 C0 0.67 0 0.34 0 0 Z " fill="#000100" transform="translate(311,1125)"/>
<path d="M0 0 C2.97 0 5.94 0 9 0 C9 0.33 9 0.66 9 1 C6.03 1 3.06 1 0 1 C0 0.67 0 0.34 0 0 Z " fill="#000100" transform="translate(287,1120)"/>
<path d="M0 0 C0.33 0 0.66 0 1 0 C1.33 2.64 1.66 5.28 2 8 C0 6 0 6 -0.12 2.88 C-0.08 1.93 -0.04 0.98 0 0 Z " fill="#000803" transform="translate(1202,193)"/>
<path d="M0 0 C2.64 0 5.28 0 8 0 C8 0.33 8 0.66 8 1 C5.36 1 2.72 1 0 1 C0 0.67 0 0.34 0 0 Z " fill="#000100" transform="translate(800,1221)"/>
<path d="M0 0 C2.64 0 5.28 0 8 0 C8 0.33 8 0.66 8 1 C5.36 1 2.72 1 0 1 C0 0.67 0 0.34 0 0 Z " fill="#000100" transform="translate(370,1134)"/>
<path d="M0 0 C2.31 0 4.62 0 7 0 C7 0.33 7 0.66 7 1 C4.69 1 2.38 1 0 1 C0 0.67 0 0.34 0 0 Z " fill="#000100" transform="translate(637,1189)"/>
<path d="M0 0 C2.31 0 4.62 0 7 0 C7 0.33 7 0.66 7 1 C4.69 1 2.38 1 0 1 C0 0.67 0 0.34 0 0 Z " fill="#000100" transform="translate(435,1148)"/>
<path d="M0 0 C2.31 0 4.62 0 7 0 C7 0.33 7 0.66 7 1 C4.69 1 2.38 1 0 1 C0 0.67 0 0.34 0 0 Z " fill="#000100" transform="translate(412,1143)"/>
<path d="M0 0 C1.98 0 3.96 0 6 0 C6 0.33 6 0.66 6 1 C4.02 1 2.04 1 0 1 C0 0.67 0 0.34 0 0 Z " fill="#000100" transform="translate(1104,1257)"/>
<path d="M0 0 C1.98 0 3.96 0 6 0 C6 0.33 6 0.66 6 1 C4.02 1 2.04 1 0 1 C0 0.67 0 0.34 0 0 Z " fill="#000100" transform="translate(981,1257)"/>
<path d="M0 0 C1.98 0 3.96 0 6 0 C6 0.33 6 0.66 6 1 C4.02 1 2.04 1 0 1 C0 0.67 0 0.34 0 0 Z " fill="#000100" transform="translate(761,1212)"/>
<path d="M0 0 C1.98 0 3.96 0 6 0 C6 0.33 6 0.66 6 1 C4.02 1 2.04 1 0 1 C0 0.67 0 0.34 0 0 Z " fill="#000100" transform="translate(654,1193)"/>
<path d="M0 0 C1.98 0 3.96 0 6 0 C6 0.33 6 0.66 6 1 C4.02 1 2.04 1 0 1 C0 0.67 0 0.34 0 0 Z " fill="#000100" transform="translate(596,1180)"/>
<path d="M0 0 C0.66 0.33 1.32 0.66 2 1 C1.67 1.66 1.34 2.32 1 3 C0.34 3 -0.32 3 -1 3 C-0.67 2.01 -0.34 1.02 0 0 Z " fill="#00210F" transform="translate(1196,1171)"/>
<path d="M0 0 C0.33 0 0.66 0 1 0 C1 1.98 1 3.96 1 6 C0.67 6 0.34 6 0 6 C0 4.02 0 2.04 0 0 Z " fill="#000100" transform="translate(1198,1162)"/>
<path d="M0 0 C0.33 1.32 0.66 2.64 1 4 C0.34 4 -0.32 4 -1 4 C-0.67 2.68 -0.34 1.36 0 0 Z " fill="#000100" transform="translate(1203,1148)"/>
<path d="M0 0 C1.98 0 3.96 0 6 0 C6 0.33 6 0.66 6 1 C4.02 1 2.04 1 0 1 C0 0.67 0 0.34 0 0 Z " fill="#000100" transform="translate(272,1116)"/>
<path d="M0 0 C0.33 0 0.66 0 1 0 C1 1.98 1 3.96 1 6 C0.67 6 0.34 6 0 6 C0 4.02 0 2.04 0 0 Z " fill="#000100" transform="translate(1198,181)"/>
<path d="M0 0 C1.65 0 3.3 0 5 0 C5 0.33 5 0.66 5 1 C3.35 1 1.7 1 0 1 C0 0.67 0 0.34 0 0 Z " fill="#000100" transform="translate(820,1225)"/>
<path d="M0 0 C1.65 0 3.3 0 5 0 C5 0.33 5 0.66 5 1 C3.35 1 1.7 1 0 1 C0 0.67 0 0.34 0 0 Z " fill="#000100" transform="translate(615,1184)"/>
<path d="M0 0 C1.65 0 3.3 0 5 0 C5 0.33 5 0.66 5 1 C3.35 1 1.7 1 0 1 C0 0.67 0 0.34 0 0 Z " fill="#000100" transform="translate(396,1139)"/>
<path d="M0 0 C1.65 0 3.3 0 5 0 C5 0.33 5 0.66 5 1 C3.35 1 1.7 1 0 1 C0 0.67 0 0.34 0 0 Z " fill="#000100" transform="translate(250,1111)"/>
<path d="M0 0 C1.65 0 3.3 0 5 0 C5 0.33 5 0.66 5 1 C3.35 1 1.7 1 0 1 C0 0.67 0 0.34 0 0 Z " fill="#000100" transform="translate(232,1107)"/>
<path d="M0 0 C1.65 0 3.3 0 5 0 C5 0.33 5 0.66 5 1 C3.35 1 1.7 1 0 1 C0 0.67 0 0.34 0 0 Z " fill="#000100" transform="translate(209,1102)"/>
<path d="M0 0 C4 1 4 1 4 1 Z " fill="#000100" transform="translate(1092,1262)"/>
<path d="M0 0 C4 1 4 1 4 1 Z " fill="#000100" transform="translate(887,1235)"/>
<path d="M0 0 C4 1 4 1 4 1 Z " fill="#000100" transform="translate(1149,1230)"/>
<path d="M0 0 C0.99 0.49 0.99 0.49 2 1 C1.34 1.66 0.68 2.32 0 3 C0 2.01 0 1.02 0 0 Z " fill="#000100" transform="translate(1175,1203)"/>
<path d="M0 0 C4 1 4 1 4 1 Z " fill="#001107" transform="translate(161,1093)"/>
<path d="M0 0 C1 4 1 4 1 4 Z " fill="#000100" transform="translate(1207,211)"/>
<path d="M0 0 C1 4 1 4 1 4 Z " fill="#000100" transform="translate(1193,165)"/>
<path d="M0 0 C0.99 0.5 0.99 0.5 2 1 C1.67 1.66 1.34 2.32 1 3 C0.67 2.01 0.34 1.02 0 0 Z " fill="#000100" transform="translate(1164,125)"/>
<path d="M0 0 C3 1 3 1 3 1 Z " fill="#000100" transform="translate(723,1203)"/>
<path d="" fill="#000100" transform="translate(0,0)"/>
<path d="M0 0 C3 1 3 1 3 1 Z " fill="#000100" transform="translate(558,1171)"/>
<path d="M0 0 C3 1 3 1 3 1 Z " fill="#000100" transform="translate(500,1162)"/>
<path d="M0 0 C2 1 2 1 2 1 Z " fill="#00421F" transform="translate(1022,1264)"/>
<path d="M0 0 C2 1 2 1 2 1 Z " fill="#000100" transform="translate(1117,1253)"/>
<path d="M0 0 C2 1 2 1 2 1 Z " fill="#000100" transform="translate(925,1244)"/>
<path d="M0 0 C2 1 2 1 2 1 Z " fill="#000100" transform="translate(826,1226)"/>
<path d="M0 0 C2 1 2 1 2 1 Z " fill="#00210F" transform="translate(662,1194)"/>
<path d="M0 0 C2 1 2 1 2 1 Z " fill="#000100" transform="translate(152,1088)"/>
<path d="M0 0 C2 1 2 1 2 1 Z " fill="#000100" transform="translate(138,1079)"/>
<path d="M0 0 C2 1 2 1 2 1 Z " fill="#000100" transform="translate(125,1070)"/>
<path d="" fill="#00E790" transform="translate(0,0)"/>
<path d="" fill="#00210F" transform="translate(0,0)"/>
<path d="" fill="#000100" transform="translate(0,0)"/>
<path d="" fill="#000100" transform="translate(0,0)"/>
<path d="" fill="#000100" transform="translate(0,0)"/>
<path d="" fill="#000100" transform="translate(0,0)"/>
<path d="" fill="#000100" transform="translate(0,0)"/>
<path d="" fill="#000100" transform="translate(0,0)"/>
<path d="" fill="#000100" transform="translate(0,0)"/>
<path d="" fill="#000100" transform="translate(0,0)"/>
<path d="" fill="#000100" transform="translate(0,0)"/>
<path d="" fill="#000100" transform="translate(0,0)"/>
<path d="" fill="#000100" transform="translate(0,0)"/>
<path d="" fill="#000100" transform="translate(0,0)"/>
<path d="" fill="#000100" transform="translate(0,0)"/>
<path d="" fill="#000100" transform="translate(0,0)"/>
<path d="" fill="#000100" transform="translate(0,0)"/>
<path d="" fill="#000100" transform="translate(0,0)"/>
<path d="" fill="#00421F" transform="translate(0,0)"/>
<path d="" fill="#000100" transform="translate(0,0)"/>
<path d="" fill="#000100" transform="translate(0,0)"/>
<path d="" fill="#000100" transform="translate(0,0)"/>
<path d="" fill="#000100" transform="translate(0,0)"/>
<path d="" fill="#00421F" transform="translate(0,0)"/>
<path d="" fill="#00E790" transform="translate(0,0)"/>
<path d="" fill="#00E790" transform="translate(0,0)"/>
<path d="" fill="#00AE6B" transform="translate(0,0)"/>
<path d="" fill="#00AE6B" transform="translate(0,0)"/>
<path d="" fill="#000100" transform="translate(0,0)"/>
<path d="" fill="#00AE6B" transform="translate(0,0)"/>
<path d="" fill="#00E790" transform="translate(0,0)"/>
<path d="" fill="#000100" transform="translate(0,0)"/>
<path d="" fill="#00E790" transform="translate(0,0)"/>
<path d="" fill="#000100" transform="translate(0,0)"/>
<path d="" fill="#00AE6B" transform="translate(0,0)"/>
<path d="" fill="#000100" transform="translate(0,0)"/>
<path d="" fill="#00AE6B" transform="translate(0,0)"/>
<path d="" fill="#00AE6B" transform="translate(0,0)"/>
<path d="" fill="#000100" transform="translate(0,0)"/>
<path d="" fill="#000100" transform="translate(0,0)"/>
<path d="" fill="#000100" transform="translate(0,0)"/>
<path d="" fill="#000100" transform="translate(0,0)"/>
</svg>
